<?xml version="1.0" standalone="no"?>
<!DOCTYPE svg PUBLIC "-//W3C//DTD SVG 20010904//EN"
 "http://www.w3.org/TR/2001/REC-SVG-20010904/DTD/svg10.dtd">
<svg version="1.0" xmlns="http://www.w3.org/2000/svg"
 width="512.000000pt" height="512.000000pt" viewBox="0 0 512.000000 512.000000"
 preserveAspectRatio="xMidYMid meet">
<metadata>
Created by potrace 1.11, written by Peter Selinger 2001-2013
</metadata>
<g transform="translate(0.000000,512.000000) scale(0.100000,-0.100000)"
fill="#000000" stroke="none">
<path d="M2640 4952 c-198 -55 -281 -298 -158 -462 18 -23 37 -48 42 -55 9
-12 -2 -56 -92 -387 -36 -134 -38 -138 -64 -139 -16 -1 -40 -2 -55 -3 -29 -3
-184 -19 -193 -21 -3 -1 -30 -5 -60 -9 -285 -42 -616 -163 -835 -306 -287
-189 -506 -453 -630 -765 -45 -112 -97 -299 -110 -395 -3 -25 -10 -79 -16
-120 -5 -41 -11 -88 -14 -105 -2 -16 -7 -66 -10 -110 -4 -44 -9 -89 -11 -100
-6 -25 -6 -351 0 -385 2 -14 7 -50 11 -80 20 -155 90 -329 179 -447 135 -178
365 -322 676 -422 65 -21 279 -75 335 -85 17 -3 39 -8 50 -10 11 -2 41 -6 66
-10 25 -4 57 -9 70 -11 26 -4 158 -21 229 -29 237 -26 768 -27 985 -1 17 2 57
7 90 10 33 3 71 7 85 10 35 6 99 15 140 20 19 3 55 9 80 15 25 5 56 12 70 14
72 12 327 82 385 106 11 4 47 18 80 31 33 12 98 43 145 67 345 180 520 439
556 825 11 119 5 402 -11 485 -1 9 -6 49 -9 87 -4 39 -8 81 -10 95 -3 14 -7
48 -11 75 -46 371 -190 697 -418 950 -192 213 -452 383 -742 485 -145 51 -359
101 -490 115 -33 4 -71 8 -85 11 -14 2 -77 7 -140 10 -63 4 -116 7 -118 9 -1
1 7 35 18 76 61 231 99 369 104 377 3 5 21 13 39 16 49 9 122 59 157 107 137
190 14 452 -219 464 -36 2 -77 1 -91 -3z m170 -1426 c306 -42 513 -103 715
-210 304 -161 508 -378 612 -651 33 -86 46 -141 68 -280 3 -22 9 -56 12 -75 4
-19 7 -102 7 -185 0 -131 -3 -158 -23 -214 -70 -198 -240 -322 -549 -400 -77
-20 -89 -23 -192 -40 -69 -12 -110 -18 -180 -26 -30 -3 -71 -7 -90 -10 -242
-27 -1017 -28 -1275 0 -22 2 -62 7 -90 10 -230 24 -471 81 -604 143 -167 77
-261 170 -322 317 -20 50 -28 130 -24 250 4 136 6 154 31 300 65 378 313 686
709 882 198 98 482 174 710 190 50 3 91 7 93 8 6 5 347 -3 392 -9z"/>
<path d="M1885 2934 c-59 -20 -87 -45 -117 -102 l-26 -52 1 -292 c2 -290 2
-293 26 -335 65 -114 221 -137 313 -47 60 57 65 89 64 409 -1 277 -2 281 -25
322 -48 84 -151 127 -236 97z"/>
<path d="M3111 2939 c-49 -10 -111 -58 -135 -104 -20 -38 -21 -55 -21 -341 l0
-301 30 -48 c70 -113 220 -127 318 -30 48 49 54 93 52 400 -1 275 -1 281 -25
322 -42 75 -136 119 -219 102z"/>
</g>
</svg>
